<svg width="335" height="130" fill="none" xmlns="http://www.w3.org/2000/svg"><path fill-rule="evenodd" clip-rule="evenodd" d="M62.357 0 0 78.23v21.858h56.583V130H79.68v-29.912H97V78.23H79.679V0H62.357Zm-5.774 77.655V38.54L25.405 77.655h31.178ZM167 130c35.899 0 65-29.101 65-65 0-35.898-29.101-65-65-65s-65 29.102-65 65c0 35.899 29.101 65 65 65Zm.5-18c25.681 0 46.5-20.819 46.5-46.5S193.181 19 167.5 19 121 39.819 121 65.5s20.819 46.5 46.5 46.5Z" fill="#BA3288"/><path d="M155.528 46.658c0 .678-.56 1.238-1.238 1.238-.678 0-1.209-.56-1.209-1.238V36.396c0-1.504.59-2.83 1.563-3.804A5.396 5.396 0 0 1 158.447 31h18.106c1.503 0 2.83.62 3.803 1.592a5.343 5.343 0 0 1 1.593 3.804v14.685h14.684c1.475 0 2.831.59 3.804 1.563A5.373 5.373 0 0 1 202 56.447v18.106c0 1.503-.59 2.83-1.563 3.803a5.397 5.397 0 0 1-3.804 1.593c-2.477 0-4.777-1.357-6.723-3.273-2.477-2.418-4.423-5.81-5.484-8.345-1.711-4.217-2.743-6.546-4.04-8.05-1.209-1.416-2.801-2.153-5.691-3.214l-6.576-2.389c-.648-.236-1.12-.354-1.445-.383.266.472.885 1.032 1.799 1.563 2.271 1.268 4.187 2.713 5.809 4.6 1.592 1.887 2.89 4.157 3.863 7.106.531 1.622.708 2.978.56 3.833-.088.56-.295.974-.619 1.298-.442.413-.973.59-1.592.442-.561-.088-1.15-.442-1.799-1.09-.678-.679-1.18-1.475-1.681-2.242-.59-.944-1.179-1.828-2.064-2.005l2.949 5.072c1.798 3.125 4.098 4.157 6.575 5.278.413.177.148.059.59.236.619.295.885 1.002.619 1.622-.265.619-1.002.884-1.621.619l-.59-.265c-2.86-1.298-5.514-2.477-7.696-6.252l-3.775-6.546s-.029-.03-.029-.059a1.216 1.216 0 0 1 .531-1.622c3.686-1.857 5.071.295 6.575 2.595.384.59.767 1.21 1.209 1.681a12.861 12.861 0 0 0-.472-1.828c-.884-2.625-2.005-4.66-3.391-6.281-1.415-1.651-3.125-2.92-5.16-4.07-1.622-.913-2.654-2.122-3.008-3.125-.176-.53-.206-1.061-.029-1.533.177-.56.56-.973 1.15-1.239.796-.324 1.976-.294 3.568.295l6.576 2.389c3.302 1.209 5.16 2.123 6.723 3.921 1.503 1.74 2.595 4.247 4.452 8.7.944 2.3 2.713 5.366 4.925 7.548 1.533 1.504 3.243 2.565 5.012 2.565a2.919 2.919 0 0 0 2.92-2.948V56.447a2.921 2.921 0 0 0-2.92-2.919H180.71c-.678 0-1.209-.56-1.209-1.238V36.396c0-.825-.324-1.563-.855-2.093a2.94 2.94 0 0 0-2.093-.856h-18.106c-.796 0-1.533.325-2.064.856a2.942 2.942 0 0 0-.855 2.093v10.262Z" fill="#007DC2"/><path d="M179.501 84.342c0-.678.531-1.209 1.209-1.209s1.239.531 1.239 1.21v10.29c0 1.475-.62 2.831-1.593 3.804a5.32 5.32 0 0 1-3.803 1.563h-18.106a5.37 5.37 0 0 1-3.803-1.563 5.373 5.373 0 0 1-1.563-3.804V79.95h-14.685a5.346 5.346 0 0 1-3.804-1.593A5.346 5.346 0 0 1 133 74.553V56.448c0-1.475.619-2.831 1.592-3.804a5.32 5.32 0 0 1 3.804-1.563c2.477 0 4.748 1.327 6.694 3.243 2.477 2.448 4.452 5.839 5.484 8.375 1.74 4.187 2.772 6.546 4.04 8.02 1.209 1.416 2.801 2.153 5.721 3.214l6.546 2.418c.678.236 1.15.354 1.445.354-.266-.472-.855-1.032-1.77-1.533-2.27-1.298-4.216-2.742-5.809-4.63-1.621-1.857-2.889-4.157-3.862-7.077-.531-1.621-.708-2.978-.59-3.862.088-.531.295-.974.619-1.298.442-.413.973-.56 1.622-.442.531.118 1.12.472 1.769 1.12.678.65 1.18 1.445 1.681 2.212.619.944 1.209 1.858 2.064 2.005l-2.919-5.072c-1.799-3.096-4.099-4.128-6.605-5.248-.413-.177-.148-.06-.59-.266-.619-.265-.885-1.002-.619-1.622.295-.619 1.002-.884 1.621-.619l.59.266c2.86 1.297 5.514 2.476 7.696 6.28l3.775 6.517c.029.03.029.03.029.059.325.62.089 1.327-.531 1.651-3.656 1.828-5.071-.324-6.546-2.624-.383-.59-.796-1.18-1.209-1.651.059.471.207 1.09.443 1.828.884 2.624 2.005 4.63 3.42 6.28 1.386 1.622 3.096 2.89 5.131 4.04 1.622.914 2.683 2.123 3.008 3.126.177.56.206 1.061.059 1.533-.207.56-.59 1.003-1.18 1.239-.767.324-1.976.295-3.568-.295l-6.546-2.389c-3.332-1.209-5.19-2.093-6.753-3.921-1.503-1.74-2.594-4.247-4.423-8.7-.973-2.3-2.712-5.366-4.954-7.548-1.533-1.504-3.243-2.536-4.983-2.536a2.921 2.921 0 0 0-2.949 2.92v18.105c0 .825.325 1.562.856 2.093.53.531 1.268.855 2.093.855h15.894c.678 0 1.238.531 1.238 1.21v15.922a2.922 2.922 0 0 0 2.919 2.92h18.106a2.94 2.94 0 0 0 2.093-.855 2.92 2.92 0 0 0 .855-2.065v-10.29Z" fill="#BA3288"/><path fill-rule="evenodd" clip-rule="evenodd" d="M300.357 0 238 78.23v21.858h56.583V130h23.096v-29.912H335V78.23h-17.321V0h-17.322Zm-5.774 77.655V38.54l-31.178 39.115h31.178Z" fill="#BA3288"/></svg>