<svg width="40" height="45" fill="none" xmlns="http://www.w3.org/2000/svg"><g clip-path="url(#a)"><mask id="b" style="mask-type:luminance" maskUnits="userSpaceOnUse" x="0" y="0" width="40" height="45"><path d="M40 0H0v45h40V0Z" fill="#fff"/></mask><g mask="url(#b)"><mask id="c" style="mask-type:luminance" maskUnits="userSpaceOnUse" x="0" y="0" width="40" height="45"><path d="M40 0H0v45h40V0Z" fill="#fff"/></mask><g mask="url(#c)"><path fill-rule="evenodd" clip-rule="evenodd" d="M24.809 39.418C33.532 37.265 40 29.388 40 20 40 8.954 31.046 0 20 0S0 8.954 0 20c0 9.388 6.468 17.265 15.191 19.418.613.22 1.884.89 3.309 2.896.508.715.853 1.3 1.083 1.74.14.267.695.267.834 0 .23-.44.575-1.025 1.083-1.74 1.425-2.005 2.696-2.676 3.309-2.896Z" fill="#E4332C"/></g></g><path fill-rule="evenodd" clip-rule="evenodd" d="M14.769 14.749H10.9A3.902 3.902 0 0 0 7 18.654v2.633a3.902 3.902 0 0 0 3.9 3.905h3.869v3.903a3.902 3.902 0 0 0 3.9 3.905h2.63c2.154 0 3.9-1.748 3.9-3.905v-3.903H29.1c2.154 0 3.9-1.748 3.9-3.905v-2.633a3.902 3.902 0 0 0-3.9-3.905h-3.901v-3.844A3.902 3.902 0 0 0 21.299 7h-2.63a3.902 3.902 0 0 0-3.9 3.905v3.844Zm1.3 2.603c.717 0 1.3-.583 1.3-1.301v-5.146a1.3 1.3 0 0 1 1.3-1.302h2.63a1.3 1.3 0 0 1 1.3 1.302v5.146a1.3 1.3 0 0 0 1.3 1.301H29.1a1.3 1.3 0 0 1 1.3 1.302v2.633c0 .719-.582 1.302-1.3 1.302h-5.201a1.3 1.3 0 0 0-1.3 1.302v5.204a1.3 1.3 0 0 1-1.3 1.302h-2.63a1.3 1.3 0 0 1-1.3-1.302V23.89a1.3 1.3 0 0 0-1.3-1.302H10.9c-.718 0-1.3-.583-1.3-1.302v-2.633a1.3 1.3 0 0 1 1.3-1.302h5.169Z" fill="#fff"/></g><defs><clipPath id="a"><path fill="#fff" d="M0 0h40v45H0z"/></clipPath></defs></svg>