<svg width="241" height="66" fill="none" xmlns="http://www.w3.org/2000/svg"><g clip-path="url(#a)"><path d="M102.903 47.285c-4.269 0-7.916-.974-10.9-2.922-3.004-1.948-5.097-4.62-6.278-8.019l6.3-3.688c1.781 4.993 5.47 7.5 11.085 7.5 2.756 0 4.828-.538 6.196-1.616 1.388-1.077 2.072-2.486 2.072-4.227 0-1.823-.746-3.232-2.238-4.185-1.471-.953-4.103-1.99-7.874-3.15-2.134-.621-3.854-1.222-5.16-1.782-1.326-.538-2.714-1.326-4.164-2.32-1.472-.995-2.57-2.238-3.295-3.71-.704-1.491-1.077-3.232-1.077-5.221 0-3.958 1.409-7.086 4.206-9.386 2.797-2.321 6.175-3.482 10.111-3.482 3.564 0 6.693.87 9.366 2.611 2.673 1.74 4.725 4.144 6.175 7.19l-6.175 3.564c-1.865-4.144-4.993-6.237-9.366-6.237-2.113 0-3.812.498-5.076 1.492-1.285 1.016-1.927 2.362-1.927 4.04 0 1.658.663 2.964 1.948 3.917 1.305.953 3.646 1.968 7.024 3.025 1.699.56 2.942.974 3.73 1.243.787.27 1.885.705 3.315 1.306 1.43.6 2.486 1.18 3.212 1.782.725.6 1.492 1.347 2.32 2.238a7.793 7.793 0 0 1 1.762 3.046c.331 1.14.497 2.445.497 3.874 0 4.04-1.451 7.232-4.351 9.594-2.901 2.341-6.714 3.523-11.438 3.523Zm47.74-32.656h6.879v31.827h-6.879v-4.58c-2.59 3.606-6.299 5.409-11.127 5.409-4.372 0-8.122-1.617-11.21-4.87-3.087-3.232-4.641-7.19-4.641-11.873 0-4.703 1.554-8.661 4.641-11.893 3.088-3.233 6.838-4.828 11.21-4.828 4.828 0 8.537 1.782 11.127 5.346v-4.538Zm-17.239 23.207c1.906 1.927 4.31 2.9 7.19 2.9 2.88 0 5.283-.973 7.19-2.9 1.906-1.927 2.859-4.352 2.859-7.294 0-2.921-.953-5.346-2.859-7.273-1.907-1.927-4.31-2.9-7.19-2.9-2.88 0-5.284.973-7.19 2.9-1.907 1.927-2.86 4.352-2.86 7.273 0 2.942.953 5.367 2.86 7.294Zm32.137 8.62V0h6.879v46.456h-6.879Zm36.282-31.827h6.858v31.827h-6.858v-4.062c-2.093 3.254-5.366 4.89-9.863 4.89-3.646 0-6.611-1.16-8.847-3.501-2.259-2.321-3.379-5.533-3.379-9.615v-19.54h6.88v18.856c0 2.363.621 4.186 1.907 5.47 1.263 1.265 3.004 1.907 5.221 1.907 2.403 0 4.372-.746 5.844-2.258 1.491-1.513 2.237-3.813 2.237-6.9V14.629Zm20.866 8.785c0 1.078.58 1.907 1.761 2.528 1.161.601 2.59 1.14 4.269 1.575 1.657.456 3.357.974 5.055 1.575 1.7.58 3.129 1.595 4.29 3.025 1.159 1.409 1.76 3.212 1.76 5.367 0 3.066-1.18 5.45-3.542 7.19-2.362 1.74-5.305 2.61-8.869 2.61-3.15 0-5.844-.663-8.102-1.968-2.237-1.305-3.874-3.15-4.889-5.47l5.925-3.44c1.099 3.046 3.439 4.58 7.066 4.58 3.605 0 5.408-1.182 5.408-3.564 0-1.016-.601-1.845-1.76-2.487-1.161-.622-2.59-1.16-4.269-1.616-1.678-.435-3.357-.974-5.057-1.554a9.838 9.838 0 0 1-4.288-2.963c-1.161-1.389-1.762-3.13-1.762-5.243 0-2.942 1.12-5.283 3.357-7.065 2.217-1.782 4.994-2.673 8.289-2.673 2.631 0 4.993.58 7.044 1.74 2.051 1.16 3.626 2.797 4.745 4.87l-5.801 3.253c-1.099-2.425-3.088-3.626-5.988-3.626-1.306 0-2.405.269-3.295.85-.892.58-1.347 1.408-1.347 2.506Z" fill="#007DC2"/><path d="M97.33 54.06v8.123h-1.39v-5.906l-2.59 4.165h-.186l-2.59-4.165v5.906h-1.388V54.06h1.512l2.55 4.103 2.569-4.103h1.512Zm3.149 4.724c.145.726.476 1.285.994 1.679.539.414 1.181.6 1.948.6 1.077 0 1.865-.393 2.341-1.18l1.202.683c-.787 1.223-1.989 1.844-3.564 1.844-1.305 0-2.341-.414-3.149-1.222-.809-.808-1.223-1.823-1.223-3.067 0-1.222.394-2.237 1.181-3.066.808-.808 1.824-1.202 3.088-1.202 1.181 0 2.155.414 2.921 1.243.746.85 1.119 1.865 1.119 3.046 0 .207 0 .414-.041.642h-6.817Zm2.818-3.605c-.767 0-1.389.207-1.886.642-.497.436-.808.995-.932 1.72h5.428c-.103-.766-.414-1.367-.911-1.761a2.62 2.62 0 0 0-1.699-.601Zm12.349 5.657h1.119v3.543h-1.388v-2.196h-6.113v2.196h-1.388v-3.543h.974c.538-.705.787-1.72.787-3.005v-3.77h6.009v6.775Zm-5.18 0h3.771v-5.47h-3.191v2.465c0 1.223-.207 2.217-.58 3.005Zm13.738-6.776h1.139v8.123h-1.409v-5.699l-4.496 5.699h-1.14V54.06h1.389v5.698l4.517-5.698Zm10.132 6.776h1.326v3.543h-1.409v-2.196h-6.755V54.06h1.409v6.776h3.999V54.06h1.43v6.776Zm8.744-6.776h1.14v8.123h-1.389v-5.699l-4.517 5.699h-1.139V54.06h1.409v5.698l4.496-5.698Zm8.91 0h1.43v8.123h-1.43v-3.399h-4.206v3.399h-1.409V54.06h1.409v3.378h4.206V54.06Zm7.397 8.35c-1.222 0-2.237-.414-3.066-1.243-.808-.808-1.223-1.823-1.223-3.046 0-1.222.415-2.237 1.223-3.046.829-.828 1.844-1.222 3.066-1.222.808 0 1.534.186 2.155.56a3.869 3.869 0 0 1 1.451 1.553l-1.202.684c-.207-.435-.518-.766-.953-1.036a2.814 2.814 0 0 0-1.451-.393c-.808 0-1.491.29-2.051.828-.539.56-.808 1.244-.808 2.072 0 .808.269 1.492.808 2.052.56.56 1.243.828 2.051.828.539 0 1.036-.124 1.472-.372.435-.27.766-.601.994-1.036l1.202.704a4.125 4.125 0 0 1-1.513 1.533 4.244 4.244 0 0 1-2.155.58Zm11.956-.227h-1.761l-3.709-3.854v3.854h-1.409V54.06h1.409v3.585l3.522-3.585h1.824l-3.896 3.937 4.02 4.186Zm7.232-8.123h1.14v8.123h-1.41v-5.699l-4.496 5.699h-1.14V54.06h1.389v5.698l4.517-5.698Zm4.62-1.222v-1.244h4.393v1.244h-4.393Zm4.579 1.222h1.14v8.123h-1.41v-5.699l-4.495 5.699h-1.14V54.06h1.388v5.698l4.517-5.698Zm14.195 6.776h1.325v3.543h-1.409v-2.196h-6.755V54.06h1.409v6.776h3.999V54.06h1.431v6.776Zm3.502-2.052c.144.726.476 1.285 1.015 1.679.517.414 1.159.6 1.926.6 1.078 0 1.866-.393 2.342-1.18l1.222.683c-.808 1.223-1.989 1.844-3.583 1.844-1.287 0-2.343-.414-3.151-1.222-.808-.808-1.222-1.823-1.222-3.067 0-1.222.393-2.237 1.201-3.066.788-.808 1.803-1.202 3.066-1.202 1.203 0 2.176.414 2.922 1.243.746.85 1.14 1.865 1.14 3.046 0 .207-.02.414-.063.642h-6.815Zm2.816-3.605c-.765 0-1.388.207-1.885.642-.496.436-.808.995-.931 1.72h5.449c-.125-.766-.435-1.367-.911-1.761a2.68 2.68 0 0 0-1.722-.601Zm11.315-1.119h1.409v8.123h-1.409v-3.399h-4.206v3.399h-1.431V54.06h1.431v3.378h4.206V54.06Zm9.614 0v1.368h-2.756v6.755h-1.43v-6.755h-2.776V54.06h6.962Zm5.739-.207c1.14 0 2.094.414 2.902 1.243.808.829 1.201 1.844 1.201 3.025 0 1.202-.393 2.217-1.201 3.046-.808.83-1.762 1.243-2.902 1.243-1.347 0-2.382-.538-3.086-1.616v4.663h-1.409V54.06h1.409v1.388c.704-1.077 1.739-1.595 3.086-1.595Zm-.186 7.19c.808 0 1.492-.29 2.052-.85.558-.559.827-1.243.827-2.072 0-.828-.269-1.512-.827-2.072-.56-.56-1.244-.828-2.052-.828-.829 0-1.512.269-2.072.828-.559.56-.828 1.244-.828 2.072 0 .83.269 1.513.828 2.072.56.56 1.243.85 2.072.85Z" fill="#C91493"/><path d="M21.76 14.442c0 .622-.497 1.14-1.118 1.14a1.15 1.15 0 0 1-1.14-1.14V4.973c0-1.368.56-2.61 1.472-3.523A4.949 4.949 0 0 1 24.475 0h16.701c1.367 0 2.61.56 3.523 1.45a5.035 5.035 0 0 1 1.45 3.523v13.53H59.7c1.368 0 2.59.56 3.502 1.472a4.95 4.95 0 0 1 1.45 3.502v16.7c0 1.368-.559 2.611-1.45 3.523-.912.89-2.134 1.45-3.502 1.45-2.3 0-4.413-1.243-6.195-3.004-2.3-2.238-4.103-5.388-5.056-7.708-1.596-3.896-2.549-6.05-3.73-7.418-1.119-1.306-2.59-1.99-5.263-2.984l-6.05-2.196c-.622-.228-1.057-.332-1.347-.353.249.435.808.954 1.658 1.43 2.092 1.181 3.854 2.528 5.346 4.248 1.491 1.74 2.672 3.833 3.563 6.547.498 1.513.663 2.756.54 3.564-.084.498-.29.891-.58 1.181-.395.394-.892.54-1.472.415-.497-.104-1.057-.414-1.658-1.016-.621-.62-1.077-1.346-1.533-2.05-.58-.871-1.119-1.7-1.906-1.866l2.693 4.683c1.658 2.88 3.792 3.834 6.092 4.849.373.186.124.062.539.248.56.25.829.933.56 1.492-.25.56-.913.83-1.493.56l-.538-.228c-2.632-1.202-5.077-2.3-7.108-5.781l-3.48-6.03c0-.02-.021-.041-.021-.062-.29-.539-.062-1.222.497-1.513 3.377-1.699 4.662.29 6.05 2.425.353.538.705 1.098 1.099 1.533a9.433 9.433 0 0 0-.415-1.699c-.808-2.424-1.844-4.269-3.129-5.781-1.305-1.513-2.88-2.694-4.745-3.75-1.512-.83-2.465-1.948-2.776-2.88a2.068 2.068 0 0 1-.042-1.41c.166-.518.518-.911 1.078-1.14.704-.29 1.803-.29 3.294.27l6.05 2.196c3.047 1.12 4.767 1.948 6.217 3.627 1.368 1.616 2.383 3.916 4.082 8.018.87 2.135 2.507 4.953 4.559 6.962 1.409 1.389 2.983 2.363 4.62 2.363.725 0 1.41-.311 1.907-.808.497-.477.787-1.16.787-1.907v-16.7c0-.746-.29-1.43-.787-1.907a2.716 2.716 0 0 0-1.907-.808H45.01a1.114 1.114 0 0 1-1.12-1.119V4.973c0-.746-.31-1.43-.808-1.927a2.71 2.71 0 0 0-1.906-.787h-16.7a2.727 2.727 0 0 0-2.714 2.714v9.47Z" fill="#007DC2"/><path d="M43.89 49.212c0-.622.498-1.12 1.12-1.12.62 0 1.139.498 1.139 1.12v9.49c0 1.367-.56 2.59-1.45 3.501a5.036 5.036 0 0 1-3.523 1.45h-16.7c-1.368 0-2.611-.559-3.502-1.45-.912-.911-1.472-2.134-1.472-3.502v-13.55H5.972c-1.368 0-2.611-.56-3.523-1.451A5.035 5.035 0 0 1 1 40.177v-16.7a4.95 4.95 0 0 1 1.45-3.502 4.966 4.966 0 0 1 3.523-1.472c2.279 0 4.392 1.244 6.174 3.005 2.3 2.259 4.103 5.387 5.056 7.729 1.616 3.875 2.549 6.03 3.73 7.397 1.119 1.306 2.59 2.01 5.284 2.984l6.05 2.217c.601.207 1.036.31 1.326.331-.248-.435-.808-.953-1.657-1.43-2.093-1.18-3.854-2.527-5.346-4.247-1.492-1.74-2.673-3.833-3.564-6.548-.497-1.492-.663-2.735-.518-3.564.083-.497.27-.89.56-1.18.393-.394.89-.54 1.47-.415.498.104 1.057.435 1.658 1.015.622.622 1.078 1.347 1.533 2.052.58.87 1.12 1.699 1.927 1.864l-2.714-4.682c-1.658-2.86-3.792-3.813-6.071-4.85-.394-.165-.145-.061-.56-.248-.56-.248-.808-.911-.56-1.492.25-.56.933-.808 1.493-.56l.539.25c2.631 1.18 5.097 2.279 7.107 5.78l3.48 6.01c0 .02.022.041.022.062.29.56.062 1.222-.498 1.512-3.377 1.7-4.662-.29-6.05-2.424-.352-.539-.705-1.098-1.098-1.533.062.456.207 1.036.414 1.699.808 2.424 1.844 4.289 3.129 5.78 1.305 1.514 2.88 2.694 4.766 3.751 1.491.85 2.445 1.948 2.776 2.88.166.498.166.974.02 1.43-.165.497-.517.891-1.077 1.12-.704.31-1.802.29-3.273-.25l-6.051-2.217c-3.067-1.119-4.786-1.947-6.216-3.626-1.388-1.595-2.404-3.895-4.103-8.019-.87-2.113-2.507-4.952-4.558-6.962-1.41-1.388-2.984-2.362-4.6-2.362a2.727 2.727 0 0 0-2.715 2.715v16.7a2.727 2.727 0 0 0 2.714 2.715h14.67c.623 0 1.12.497 1.12 1.119V58.7c0 .726.31 1.41.808 1.907.477.497 1.16.787 1.906.787h16.701c.746 0 1.43-.29 1.907-.787a2.716 2.716 0 0 0 .808-1.906v-9.49Z" fill="#C91493"/></g><defs><clipPath id="a"><path fill="#fff" d="M0 0h241v66H0z"/></clipPath></defs></svg>