<svg width="160" height="160" fill="none" xmlns="http://www.w3.org/2000/svg"><g clip-path="url(#a)"><path d="M51.984 36.13a2.875 2.875 0 0 1-2.857 2.858c-1.565 0-2.79-1.292-2.79-2.857V12.45c0-3.47 1.36-6.531 3.606-8.777C52.19 1.43 55.32 0 58.721 0h41.778c3.47 0 6.532 1.429 8.777 3.674 2.246 2.246 3.675 5.308 3.675 8.778v33.885h33.885c3.402 0 6.532 1.36 8.777 3.606a12.395 12.395 0 0 1 3.607 8.778v41.778c0 3.47-1.361 6.532-3.607 8.777-2.245 2.246-5.375 3.675-8.777 3.675-5.716 0-11.023-3.13-15.514-7.553-5.715-5.58-10.206-13.404-12.656-19.256-3.946-9.73-6.328-15.105-9.322-18.576-2.789-3.266-6.464-4.967-13.132-7.416L81.04 54.638c-1.497-.544-2.586-.816-3.334-.884.612 1.088 2.04 2.381 4.15 3.606 5.24 2.926 9.662 6.26 13.405 10.615 3.674 4.354 6.668 9.594 8.913 16.398 1.225 3.742 1.633 6.872 1.293 8.845-.204 1.293-.68 2.246-1.429 2.994-1.021.953-2.245 1.361-3.674 1.02-1.293-.203-2.654-1.02-4.15-2.517-1.566-1.565-2.722-3.402-3.88-5.17-1.36-2.178-2.721-4.22-4.762-4.628l6.804 11.704c4.15 7.212 9.458 9.594 15.174 12.179.952.408.34.136 1.36.545 1.429.68 2.042 2.313 1.429 3.742-.612 1.429-2.313 2.041-3.742 1.429l-1.361-.613c-6.6-2.993-12.724-5.715-17.76-14.425l-8.709-15.105s-.068-.068-.068-.136c-.68-1.361-.136-3.062 1.225-3.743 8.505-4.286 11.704.68 15.174 5.988.884 1.361 1.769 2.79 2.79 3.879a29.862 29.862 0 0 0-1.09-4.219c-2.04-6.056-4.626-10.75-7.824-14.493-3.266-3.81-7.213-6.736-11.908-9.39-3.742-2.11-6.123-4.9-6.94-7.212-.408-1.225-.476-2.45-.068-3.539.408-1.293 1.293-2.245 2.654-2.858 1.837-.748 4.559-.68 8.233.68l15.173 5.512c7.621 2.79 11.908 4.9 15.514 9.05 3.47 4.015 5.988 9.798 10.275 20.073 2.177 5.307 6.259 12.383 11.363 17.419 3.538 3.47 7.484 5.919 11.567 5.919a6.741 6.741 0 0 0 4.763-1.973c1.225-1.225 1.973-2.926 1.973-4.831V58.721a6.74 6.74 0 0 0-6.736-6.736h-36.743c-1.565 0-2.79-1.293-2.79-2.858V12.452c0-1.905-.748-3.606-1.973-4.831-1.225-1.225-2.926-1.973-4.831-1.973H58.721a6.741 6.741 0 0 0-4.763 1.973c-1.225 1.225-1.974 2.926-1.974 4.83v23.68Z" fill="#007DC2"/><path d="M107.303 123.089a2.76 2.76 0 0 1 2.79-2.79c1.565 0 2.858 1.225 2.858 2.79v23.747c0 3.402-1.429 6.532-3.675 8.778-2.245 2.245-5.307 3.606-8.777 3.606H58.721a12.398 12.398 0 0 1-8.778-3.606 12.399 12.399 0 0 1-3.606-8.778v-33.885H12.452c-3.47 0-6.532-1.429-8.778-3.675C1.43 107.031 0 103.969 0 100.499V58.721c0-3.402 1.429-6.532 3.674-8.778 2.246-2.245 5.308-3.606 8.778-3.606 5.715 0 10.955 3.062 15.446 7.485 5.715 5.647 10.274 13.472 12.655 19.324 4.015 9.662 6.396 15.105 9.322 18.507 2.79 3.266 6.464 4.968 13.2 7.417l15.106 5.58c1.565.544 2.654.816 3.334.816-.612-1.089-1.973-2.381-4.082-3.538-5.24-2.994-9.73-6.328-13.405-10.683-3.742-4.287-6.668-9.594-8.914-16.33-1.224-3.742-1.633-6.872-1.36-8.914.204-1.224.68-2.245 1.429-2.994 1.02-.952 2.245-1.292 3.742-1.02 1.225.272 2.586 1.088 4.083 2.586 1.565 1.496 2.721 3.334 3.878 5.103 1.429 2.177 2.79 4.286 4.763 4.627l-6.736-11.704c-4.15-7.144-9.458-9.526-15.242-12.111-.953-.409-.34-.136-1.36-.613-1.43-.612-2.042-2.313-1.43-3.742.68-1.429 2.314-2.041 3.743-1.429l1.36.612c6.6 2.994 12.725 5.716 17.76 14.493l8.71 15.038c.067.068.067.068.067.136.749 1.429.204 3.062-1.225 3.81-8.437 4.219-11.703-.748-15.105-6.055-.885-1.361-1.837-2.722-2.79-3.81.136 1.088.476 2.517 1.02 4.218 2.042 6.056 4.628 10.683 7.894 14.493 3.198 3.742 7.144 6.668 11.84 9.322 3.742 2.11 6.191 4.899 6.94 7.212.408 1.293.476 2.45.136 3.539-.477 1.292-1.361 2.313-2.722 2.857-1.77.749-4.559.681-8.233-.68l-15.106-5.512c-7.689-2.789-11.975-4.83-15.581-9.05-3.47-4.014-5.988-9.797-10.207-20.072-2.245-5.307-6.26-12.384-11.431-17.419-3.538-3.47-7.485-5.851-11.5-5.851-1.904 0-3.605.748-4.83 1.973a6.742 6.742 0 0 0-1.973 4.763v41.778c0 1.905.748 3.606 1.973 4.831 1.225 1.225 2.926 1.973 4.83 1.973h36.676c1.565 0 2.858 1.225 2.858 2.79v36.743a6.74 6.74 0 0 0 6.736 6.736h41.778c1.905 0 3.606-.748 4.831-1.973a6.741 6.741 0 0 0 1.973-4.763v-23.747Z" fill="#C91493"/></g><defs><clipPath id="a"><path fill="#fff" d="M0 0h159.22v159.22H0z"/></clipPath></defs></svg>