<?xml version="1.0" encoding="utf-8"?><svg viewBox="0 0 100 100" xmlns="http://www.w3.org/2000/svg" xmlns:xlink="http://www.w3.org/1999/xlink"><style>:root>svg{display:none}:root>svg:target{display:block}</style><svg fill="none" viewBox="0 0 22 15" id="icon-arr-left" xmlns="http://www.w3.org/2000/svg"><path d="M22 7.5H1m0 0L7.192 14M1 7.5 7.192 1" stroke="currentColor"/></svg><svg fill="none" viewBox="0 0 22 15" id="icon-arr-right" xmlns="http://www.w3.org/2000/svg"><path d="M0 7.5h21m0 0L14.808 14M21 7.5 14.808 1" stroke="currentColor"/></svg><svg viewBox="0 0 14 14" id="icon-cross" xmlns="http://www.w3.org/2000/svg"><path fill-rule="evenodd" clip-rule="evenodd" d="m8.414 7 5.293-5.293A.999.999 0 1 0 12.293.293L7 5.586 1.707.293A.999.999 0 1 0 .293 1.707L5.586 7 .293 12.293a.999.999 0 1 0 1.414 1.414L7 8.414l5.293 5.293a.997.997 0 0 0 1.414 0 .999.999 0 0 0 0-1.414L8.414 7Z" fill="currentColor"/></svg><svg fill="none" viewBox="0 0 100 100" id="icon-doctor" xmlns="http://www.w3.org/2000/svg"><path d="M60.15 28.6a16.999 16.999 0 0 1-1.3 6 20.002 20.002 0 0 1-1.7 3.4c-1.84 3-4.38 5.24-7.17 5.24a5.48 5.48 0 0 1-2.24-.49A11.5 11.5 0 0 1 43 38.19a20.25 20.25 0 0 1-1.81-3.64A17.581 17.581 0 0 1 40 28.6a8.118 8.118 0 0 1 0-1.21l.12-.32s9.62-.22 13-5.42c.45.12.93.24 1.41.38a7.66 7.66 0 0 0 5.27 4.56l.18.46c.01.123.01.247 0 .37.088.388.144.783.17 1.18Z" stroke="currentColor" stroke-width="2" stroke-linecap="round" stroke-linejoin="round"/><path d="M41.18 34.55a1.72 1.72 0 0 1-1 .34A4.3 4.3 0 0 1 37.34 33a4.29 4.29 0 0 1-1-2.35 3.69 3.69 0 0 1 1.58-3.06c.12-.077.247-.14.38-.19.26-.105.539-.16.82-.16a3 3 0 0 1 .91.16c-.04.399-.05.8-.03 1.2a17.58 17.58 0 0 0 1.18 5.95Zm22.52-3.83c0 1.63-2.25 4.23-3.88 4.23a1.73 1.73 0 0 1-1-.34 17.622 17.622 0 0 0 1.26-5.94 7.007 7.007 0 0 0-.08-1.22 3 3 0 0 1 .86-.14c.318.002.632.074.92.21a3.571 3.571 0 0 1 1.92 3.2Zm-3.4 24.1 2.35 4.17-12.64 18.3 3.75-14.34 4.45-16.98 7 5.82-4.91 3.03Zm-22.95 4.17 2.36-4.17-4.92-3.03 7.01-5.82 4.48 17.08 3.73 14.24-12.66-18.3Z" stroke="currentColor" stroke-width="2" stroke-linecap="round" stroke-linejoin="round"/><path d="m53.76 62.95-3.75 14.34-3.73-14.24 3.83-14.46 3.65 14.36Z" stroke="currentColor" stroke-width="2" stroke-linecap="round" stroke-linejoin="round"/><path d="M49.92 84.22h-24.2V66.4a15.1 15.1 0 0 1 5.46-11.62L41.79 46l8.32 2.61 8-2.61h.11l10.61 8.81a15.1 15.1 0 0 1 5.45 11.59v17.82h-24.2" stroke="currentColor" stroke-width="2" stroke-linecap="round" stroke-linejoin="round"/><path d="M38.61 80H41v-6.84a5.81 5.81 0 0 0-5.81-5.81 5.82 5.82 0 0 0-5.82 5.81V80h2.47m33.37-9.25V51.79M35.18 67.35V51.47m30.03 25.16a2.94 2.94 0 1 0 0-5.88 2.94 2.94 0 0 0 0 5.88ZM47.74 42.76H35s2.17-7 2.3-9.76a4.3 4.3 0 0 0 2.85 1.89 1.72 1.72 0 0 0 1-.34A20.254 20.254 0 0 0 43 38.19a11.5 11.5 0 0 0 4.74 4.57Zm4.48 0h12.7s-2.17-7-2.3-9.76a4.302 4.302 0 0 1-2.85 1.89 1.72 1.72 0 0 1-1-.34A20.25 20.25 0 0 1 57 38.18a11.59 11.59 0 0 1-4.78 4.58ZM37.34 33v-.01m10.42 9.77h-.02M61.85 27.5a2.18 2.18 0 0 0-.92-.21 3 3 0 0 0-.86.14 2.22 2.22 0 0 0 0-.37l-.18-.46a7.66 7.66 0 0 1-5.31-4.6c-.48-.14-1-.26-1.41-.38-3.4 5.2-13 5.42-13 5.42l-.12.32a3 3 0 0 0-.91-.16c-.28.001-.56.055-.82.16 0 0-1.43-8.13 4.23-11.27a13.47 13.47 0 0 1 7.39-1.86c4.87 0 9.47 2 11.35 5.52 1.04 2.01.71 4.37.56 7.75Z" stroke="currentColor" stroke-width="2" stroke-linecap="round" stroke-linejoin="round"/></svg><svg fill="none" viewBox="0 0 100 100" id="icon-good-pos" xmlns="http://www.w3.org/2000/svg"><path d="M44 39h-7v15h7V39Zm0 15h15.29a2.123 2.123 0 0 0 1.42-.528c.394-.345.652-.824.725-1.349l1.544-10.908a2.22 2.22 0 0 0-.511-1.745 2.148 2.148 0 0 0-.737-.553 2.114 2.114 0 0 0-.897-.19h-8.256v-6.545c0-.579-.226-1.134-.628-1.543A2.126 2.126 0 0 0 50.433 30L44 38.727" stroke="currentColor" stroke-width="2" stroke-linecap="round" stroke-linejoin="round"/><path d="M50 20a23.026 23.026 0 0 0-23 23c0 21.284 21.52 36.202 22.437 36.826a1 1 0 0 0 1.127 0C51.48 79.202 73 64.284 73 43a23.026 23.026 0 0 0-23-23Zm0 57.768C46.599 75.258 29 61.374 29 43a21 21 0 1 1 42 0c0 18.356-17.6 32.255-21 34.768Z" fill="currentColor"/></svg><svg fill="none" viewBox="0 0 100 100" id="icon-hospital" xmlns="http://www.w3.org/2000/svg"><path d="M50 42.68a7.85 7.85 0 1 0 0-15.7 7.85 7.85 0 0 0 0 15.7Z" stroke="currentColor" stroke-width="2" stroke-linecap="round" stroke-linejoin="round"/><path d="M55.5 33.86v1.94a.691.691 0 0 1-.69.7h-3.14v3.14a.7.7 0 0 1-.7.7H49a.7.7 0 0 1-.7-.7V36.5h-3.11a.7.7 0 0 1-.7-.7v-1.94a.7.7 0 0 1 .7-.7h3.14V30a.69.69 0 0 1 .7-.69H51a.692.692 0 0 1 .7.69v3.14h3.14a.693.693 0 0 1 .66.72Zm-5.42-16.81L69.3 32.56v42.33" stroke="currentColor" stroke-width="2" stroke-linecap="round" stroke-linejoin="round"/><path d="M84.29 45.96h-15v28.93h15V45.96ZM56.24 48.6h-4.07v4.07h4.07V48.6Zm8.12 0h-4.07v4.07h4.07V48.6Zm-8.12 7.75h-4.07v4.07h4.07v-4.07Zm8.12 0h-4.07v4.07h4.07v-4.07Zm0 7.76h-4.07v4.07h4.07v-4.07Z" stroke="currentColor" stroke-width="2" stroke-linecap="round" stroke-linejoin="round"/><path d="M78.83 64.11h-4.07v4.07h4.07v-4.07Zm0-7.76h-4.07v4.07h4.07v-4.07Zm6.42-16H69.29v5.61h15.96v-5.61Zm-35.33-23.3L30.7 32.56v42.33m53.6.01H15.71v5.93H84.3V74.9Z" stroke="currentColor" stroke-width="2" stroke-linecap="round" stroke-linejoin="round"/><path d="M30.71 45.96h-15v28.93h15V45.96Zm17.12 2.64h-4.07v4.07h4.07V48.6Zm-8.12 0h-4.07v4.07h4.07V48.6Zm8.12 7.75h-4.07v4.07h4.07v-4.07Zm-8.12 0h-4.07v4.07h4.07v-4.07Zm0 7.76h-4.07v4.07h4.07v-4.07Z" stroke="currentColor" stroke-width="2" stroke-linecap="round" stroke-linejoin="round"/><path d="M25.24 64.11h-4.07v4.07h4.07v-4.07Zm0-7.76h-4.07v4.07h4.07v-4.07Zm5.46-16H14.74v5.61H30.7v-5.61Zm25.53 23.76H43.76V74.9h12.47V64.11Zm-6.23 0-.08 10.79" stroke="currentColor" stroke-width="2" stroke-linecap="round" stroke-linejoin="round"/></svg><svg fill="none" viewBox="0 0 100 100" id="icon-research" xmlns="http://www.w3.org/2000/svg"><path d="M35.18 20.7H49.4a3.23 3.23 0 0 1 3.23 3.23v32.33H31.95V23.92a3.23 3.23 0 0 1 3.23-3.22Zm13.02-4.76H36.38v4.76H48.2v-4.76Zm-14.03 0h16.24m-9.33 40.32h-7.22v3.94h7.22v-3.94Zm-1.09 3.94h-5.03v2.57h5.03V60.2Zm11.16-3.94h-7.22v3.94h7.22v-3.94Zm-1.09 3.94h-5.03v2.57h5.03V60.2Zm8.59-28.59V35a3.91 3.91 0 0 1-3.91 3.91h-2.11v-11.2h2.11a3.91 3.91 0 0 1 3.91 3.9ZM28.22 69.24h28.13M75.6 84.06H24.4l1.84-6a3.68 3.68 0 0 1 3.29-2.61c.083-.01.167-.01.25 0h40.15a3.73 3.73 0 0 1 3.5 2.48l2.17 6.13ZM51.67 69.24V75a12.267 12.267 0 0 1-3.22.44H32.91v-6.2h18.76Z" stroke="currentColor" stroke-width="2" stroke-linecap="round" stroke-linejoin="round"/><path d="M66.87 47.15V75.4H48.45a12.28 12.28 0 0 0 12.24-12.25v-16a11.25 11.25 0 0 0-4.15-8.72A3.91 3.91 0 0 0 58.65 35v-2.6a17.42 17.42 0 0 1 8.22 14.75Z" stroke="currentColor" stroke-width="2" stroke-linecap="round" stroke-linejoin="round"/></svg><svg fill="none" viewBox="0 0 16 22" id="icon-up" xmlns="http://www.w3.org/2000/svg"><path d="M9.031.585a1.444 1.444 0 0 0-.477-.303 1.358 1.358 0 0 0-1.097 0c-.178.069-.34.172-.477.303L1.202 6.363a1.45 1.45 0 0 0 2.051 2.051l3.308-3.322v15.297a1.444 1.444 0 1 0 2.889 0V5.092l3.308 3.322a1.45 1.45 0 0 0 2.05-2.051L9.032.585Z" fill="currentColor"/></svg></svg>